<svg version="1.1" id="Layer_1" xmlns="http://www.w3.org/2000/svg" xmlns:xlink="http://www.w3.org/1999/xlink" x="0px" y="0px"
	 width="100%" viewBox="0 0 232 242" enable-background="new 0 0 232 242" xml:space="preserve">
<path fill="#FEFEFF" opacity="1.000000" stroke="none" 
	d="
M1.335905,95.235672 
	C1.000000,64.847504 1.045665,34.694820 0.925847,4.542801 
	C0.914486,1.684031 1.348533,0.903287 4.454350,0.908168 
	C79.418938,1.025979 154.383804,1.029287 229.348358,0.904062 
	C232.710846,0.898445 233.062943,1.955553 233.060165,4.845062 
	C232.984756,82.974945 232.979568,161.104935 233.075836,239.234772 
	C233.079620,242.316025 232.433121,243.086685 229.268539,243.082214 
	C154.470505,242.976257 79.672218,242.963226 4.874321,243.110428 
	C1.197716,243.117661 0.912977,242.035706 0.921707,238.877655 
	C1.038668,196.564453 1.000000,154.250839 1.000000,111.468658 
	C3.604027,110.774727 2.618688,113.763016 4.441701,114.645264 
	C5.149534,114.983406 5.538221,115.213196 6.169944,115.702034 
	C7.207764,116.926666 7.417531,118.317459 8.982636,118.729149 
	C17.629259,121.003563 23.411844,126.889793 28.142527,134.088852 
	C29.607292,136.317886 31.285036,138.354767 34.413101,139.153564 
	C35.187359,139.512802 35.598347,139.777512 36.263275,140.325775 
	C37.229107,141.309525 37.669617,142.179382 38.008949,143.491150 
	C38.211330,147.635071 39.112305,150.912170 43.801300,151.939957 
	C44.754307,152.218582 45.353828,152.489731 46.220711,152.950867 
	C46.672253,153.236694 46.843327,153.363510 47.229362,153.721390 
	C47.559315,154.125107 47.674305,154.297760 47.946918,154.733795 
	C48.423309,155.513565 48.761036,156.016571 49.347645,156.717072 
	C50.308754,158.160690 50.988937,159.431473 52.276550,160.656799 
	C52.602577,161.086487 52.719025,161.271118 52.985535,161.750214 
	C55.043221,165.908417 57.533066,169.384262 60.449619,173.004944 
	C62.007530,175.937088 62.655636,178.835587 63.807186,181.945633 
	C64.456619,184.558212 64.390930,186.864960 64.292000,189.142761 
	C64.132668,192.811203 65.450241,195.166702 69.713333,195.603607 
	C71.854744,195.671326 73.625481,195.651840 75.759865,195.890717 
	C77.102615,196.117584 78.071671,196.307968 79.443069,196.199875 
	C85.310646,196.544662 91.015190,198.226151 96.064316,193.401672 
	C96.968033,192.967712 97.529297,192.817490 98.569000,192.689087 
	C134.574112,192.011047 170.139908,193.702652 206.145721,191.696594 
	C208.822021,191.966293 210.122940,191.139420 210.296188,188.789703 
	C210.431229,186.958099 210.417664,185.127716 210.422348,183.296112 
	C210.507553,149.978653 210.259186,116.660774 210.595306,82.906433 
	C210.957733,80.420090 212.057785,78.933678 214.198761,77.789886 
	C215.476654,77.035164 216.409149,76.430283 216.930725,75.012543 
	C217.225800,73.127960 216.799454,71.589890 216.739471,69.673325 
	C216.873535,66.065361 216.303558,62.827602 216.569382,59.198784 
	C216.651535,56.570789 216.868866,54.315338 216.260895,51.732803 
	C216.027252,51.157234 215.930725,50.928352 215.659851,50.372803 
	C214.381744,48.049820 212.436096,48.419357 210.664444,48.358063 
	C206.880508,48.227146 203.087753,48.561993 198.937424,48.092377 
	C195.504822,47.233440 192.444504,46.750332 189.091492,48.261028 
	C187.111313,49.277130 185.451309,50.124680 184.725586,52.486382 
	C184.371887,53.030064 184.196274,53.230709 183.665649,53.643845 
	C183.043625,53.953201 182.776627,54.050060 182.084900,54.239944 
	C156.554657,54.800064 131.446716,54.405998 106.340157,54.527016 
	C104.675194,54.535042 103.000443,54.801422 101.368439,54.668663 
	C98.422134,54.428978 97.510094,55.940289 97.463547,58.932632 
	C97.459709,61.023750 97.460762,62.682709 97.418304,64.720978 
	C97.648544,66.921852 96.364426,69.556877 100.219009,69.636398 
	C101.904198,69.661942 103.217155,69.573570 104.953949,69.611694 
	C106.841339,69.608192 108.305809,69.630722 110.230568,69.557266 
	C130.742538,69.338585 150.793793,69.333282 171.307312,69.589981 
	C172.064819,69.720573 172.360046,69.796349 173.069275,70.051285 
	C175.569244,71.790215 174.729553,73.818581 174.280121,76.163483 
	C174.097458,76.801697 174.005234,77.046371 173.715668,77.619675 
	C170.443695,79.604759 167.127289,80.973969 165.454285,84.826401 
	C162.166580,86.925896 158.591690,88.269455 157.993286,92.899109 
	C154.888397,98.064911 150.898163,101.851967 145.580750,104.702225 
	C143.013702,104.771042 140.222214,104.119598 141.693985,108.433334 
	C141.687653,109.000793 141.659058,109.227371 141.508865,109.774796 
	C137.559814,114.200050 132.891647,117.470337 129.391327,122.343277 
	C129.140610,122.840256 129.033340,123.035614 128.739105,123.508011 
	C128.404007,123.951057 128.255905,124.117058 127.855469,124.499657 
	C127.424973,124.846642 127.246819,124.977028 126.795547,125.292892 
	C126.339233,125.599678 126.156029,125.720985 125.697220,126.022102 
	C122.612091,127.977242 120.370483,130.386597 117.888397,133.021790 
	C117.392776,133.627441 117.098679,133.965851 116.571632,134.551697 
	C112.572014,138.706177 108.185394,141.973724 104.383469,146.304092 
	C103.578377,146.798340 103.016899,147.068161 102.271698,147.604034 
	C101.909103,147.943298 101.768112,148.083435 101.424255,148.442963 
	C100.953323,148.960342 100.686409,149.259369 100.229843,149.796753 
	C99.524132,150.667465 99.006569,151.298615 98.260315,152.134186 
	C97.757774,152.627960 97.465836,152.902390 96.972900,153.395844 
	C96.501114,153.906113 96.216347,154.183075 95.693298,154.642090 
	C95.160721,155.097931 94.864723,155.370728 94.378036,155.892487 
	C93.369202,157.143890 92.505516,158.108887 91.395767,159.308868 
	C89.662605,160.640274 88.314011,161.952698 86.169250,162.640945 
	C81.411163,163.338760 77.559319,161.681915 73.473381,159.593353 
	C71.496872,158.020767 72.183647,154.969589 69.235855,154.128510 
	C68.704948,153.935379 68.493263,153.851562 67.976524,153.607788 
	C67.291023,153.187759 66.931732,152.901352 66.359123,152.334869 
	C64.453659,149.099197 61.835266,146.846100 59.729347,143.769928 
	C59.168835,142.921219 58.841396,142.326691 58.269524,141.480530 
	C54.002419,134.979309 49.191013,129.312805 44.491112,123.148445 
	C44.071091,122.767761 43.912216,122.606621 43.545578,122.179726 
	C43.083965,121.543724 42.833546,121.171173 42.386421,120.523788 
	C41.919590,119.878601 41.678062,119.490150 41.315987,118.767822 
	C41.027573,117.996437 40.907764,117.538712 40.742287,116.720566 
	C39.004108,111.088852 39.206024,105.236404 35.588566,100.181992 
	C34.638165,98.218544 34.651833,96.492172 34.945145,94.411507 
	C35.123055,92.965622 36.675125,92.128174 35.406487,90.601814 
	C32.564899,88.801979 29.836857,87.565971 26.347565,87.699730 
	C25.562290,87.796616 25.109173,87.804703 24.313793,87.738045 
	C22.856230,87.430016 21.732576,87.203621 20.253643,86.971359 
	C19.693626,86.813293 19.475536,86.730545 18.960958,86.463112 
	C14.693053,82.038567 12.424976,81.609573 7.604017,84.533020 
	C4.903966,87.692719 5.793411,91.538353 4.273410,95.054077 
	C3.248776,95.744530 2.468717,95.773026 1.335905,95.235672 
z"/>
<path fill="#E7EFFD" opacity="1.000000" stroke="none" 
	d="
M4.425681,115.490433 
	C0.839918,115.832596 2.678432,112.788200 1.273147,111.242310 
	C1.000000,109.933327 1.000000,108.866661 1.000000,107.399994 
	C1.904111,105.910057 1.443153,104.664467 1.201421,103.233421 
	C1.000000,102.555557 1.000000,102.111107 1.000000,101.333328 
	C1.737106,100.271515 1.486986,99.375244 1.211538,98.255310 
	C1.000000,97.250000 1.000000,96.500000 1.000000,95.375000 
	C1.732509,94.991714 2.465019,94.983429 3.563767,94.967819 
	C6.851220,101.569328 5.539949,108.346458 4.425681,115.490433 
z"/>
<path fill="#FEFEFF" opacity="1.000000" stroke="none" 
	d="
M1.000000,103.399994 
	C2.302033,104.028946 2.174591,105.265427 1.259770,106.789253 
	C1.000000,105.933327 1.000000,104.866661 1.000000,103.399994 
z"/>
<path fill="#FEFEFF" opacity="1.000000" stroke="none" 
	d="
M1.000000,98.375000 
	C2.070363,98.706398 2.189655,99.594482 1.251820,100.818207 
	C1.000000,100.250000 1.000000,99.500000 1.000000,98.375000 
z"/>
<path fill="#242022" opacity="1.000000" stroke="none" 
	d="
M98.434357,193.506104 
	C97.586227,193.796799 97.159935,193.865662 96.404976,193.907257 
	C93.499168,190.872894 96.040955,187.721191 95.888481,184.267227 
	C96.429543,182.207077 97.329620,180.696289 97.982513,178.696671 
	C98.385521,177.676315 98.739952,177.040558 99.375114,176.149521 
	C99.801300,175.723038 99.997391,175.579193 100.529442,175.292877 
	C101.101669,175.092377 101.337952,175.034332 101.936394,174.931580 
	C103.278137,174.829727 104.244850,174.931183 105.558960,175.210602 
	C106.375244,175.444595 106.846001,175.546967 107.654572,175.383270 
	C108.236748,175.066040 108.492332,174.961395 109.168030,174.755219 
	C133.899658,174.102463 158.214432,174.544357 182.527420,174.418228 
	C192.405197,174.366989 192.394562,174.407303 192.412384,164.692673 
	C192.458847,139.377319 192.303833,114.061768 192.546844,88.278519 
	C192.674713,87.192780 192.798645,86.585663 193.162994,85.573959 
	C198.754776,81.463295 204.422226,78.765129 211.560501,80.744263 
	C211.933670,117.650749 211.936111,154.253784 212.120682,190.855881 
	C212.140839,194.852203 209.818466,193.957306 207.226089,193.838745 
	C206.192627,191.585236 204.366241,192.496338 203.129349,192.538666 
	C171.694962,193.614410 140.252014,192.681671 108.815643,193.009720 
	C105.495903,193.044357 102.161835,192.699081 98.434357,193.506104 
z"/>
<path fill="#241E21" opacity="1.000000" stroke="none" 
	d="
M96.659637,66.259277 
	C96.360695,64.277985 96.287148,62.557018 96.325188,60.418045 
	C100.021637,53.528667 100.916840,53.129448 107.841972,55.906200 
	C110.857574,57.115360 113.897919,57.569962 117.099991,57.563332 
	C131.090866,57.534348 145.086792,57.765652 159.070496,57.447922 
	C164.927994,57.314827 170.604233,58.794098 176.456696,58.487312 
	C179.408386,58.332588 180.686630,61.115643 179.063187,63.828987 
	C177.613434,66.252022 175.620895,68.311363 173.312408,70.629578 
	C152.307343,70.996475 131.613297,71.057663 110.458611,71.025436 
	C108.612869,69.722084 107.102844,69.779015 105.265068,70.712341 
	C103.604683,71.003670 102.207436,71.073975 100.400368,71.045761 
	C99.416908,70.290054 97.428307,70.196152 98.059334,69.492775 
	C100.029518,67.296684 97.588585,67.349022 96.659637,66.259277 
z"/>
<path fill="#1F1D1D" opacity="1.000000" stroke="none" 
	d="
M173.249329,71.020828 
	C172.637650,67.495293 175.640701,66.206337 177.389847,64.133636 
	C178.380692,62.959511 179.528534,61.872604 178.471756,60.229988 
	C177.465149,58.665375 176.184341,59.395607 174.987091,60.010811 
	C171.435989,61.835545 168.516647,58.735657 164.998383,58.829098 
	C149.910461,59.229809 134.805771,58.985626 119.707245,59.008381 
	C114.908882,59.015610 110.230515,59.185192 105.741470,56.572472 
	C103.202538,55.094749 99.609200,54.031826 98.726921,59.055935 
	C98.659424,59.440327 97.683174,59.665138 96.783051,59.982086 
	C95.889175,52.956982 95.889175,52.952240 102.708214,52.954025 
	C129.160019,52.960957 155.611816,52.971172 182.526047,53.057274 
	C185.083344,55.586147 184.143280,58.523739 184.256012,61.693794 
	C184.160385,62.360687 184.102249,62.620598 183.897217,63.244358 
	C181.388123,65.460823 179.862488,67.898964 178.560303,70.953430 
	C178.096512,71.376350 177.881516,71.513504 177.301636,71.773926 
	C176.157303,72.039825 175.396637,71.979477 174.320496,71.494850 
	C173.821442,71.237656 173.659363,71.172012 173.249329,71.020828 
z"/>
<path fill="#43329C" opacity="1.000000" stroke="none" 
	d="
M217.858063,74.726639 
	C217.958527,76.119652 217.521362,77.026947 216.339630,77.835007 
	C211.865097,77.810989 208.116333,79.758179 204.103241,80.463104 
	C202.603516,80.726532 201.259933,81.151466 199.667938,79.912186 
	C200.773346,71.880676 200.899765,64.109680 200.841080,56.321690 
	C200.825684,54.274693 201.902725,52.495468 202.868256,50.285110 
	C206.418991,47.384258 212.557434,46.938118 216.106995,49.368595 
	C216.391861,49.946415 216.588089,50.114624 216.879791,50.658577 
	C217.117126,51.222198 217.259003,51.410080 217.278793,51.928123 
	C215.832870,53.553993 215.874329,55.114044 216.093552,56.816864 
	C216.618576,60.895027 217.157440,64.979385 217.140106,69.417984 
	C217.375488,70.125145 217.461075,70.534340 217.459198,71.263199 
	C217.251358,71.897011 217.066010,72.231735 217.085007,72.761925 
	C217.501297,73.440254 217.596725,73.973785 217.858063,74.726639 
z"/>
<path fill="#95A2E4" opacity="1.000000" stroke="none" 
	d="
M37.293808,143.923004 
	C36.823483,142.861542 36.470791,142.121414 36.197227,140.900818 
	C38.779533,139.417252 40.361523,140.798615 41.872925,142.513031 
	C43.165596,143.979340 44.338047,145.565048 45.710377,146.978592 
	C46.496300,146.208435 46.225365,145.373108 45.891159,145.047043 
	C40.544201,139.830475 44.938049,134.345734 45.675179,128.776245 
	C51.053165,128.807999 51.924164,133.929489 55.029442,136.471909 
	C56.354939,137.557159 56.719963,139.610779 58.614571,140.815109 
	C59.259682,141.480591 59.627361,141.916946 60.043327,142.646515 
	C59.458447,146.501495 63.130512,148.156204 63.762688,151.507935 
	C64.149918,154.644287 63.051113,156.945175 61.157944,158.844711 
	C59.324432,160.684372 58.572651,162.847336 58.424393,165.671021 
	C55.244377,166.605713 54.470535,163.574310 52.252892,162.246628 
	C51.993946,162.000000 51.850048,161.717438 51.851189,161.558899 
	C51.127563,159.974426 50.682896,158.366180 48.930626,157.266647 
	C47.776775,156.932861 47.238144,156.427841 46.985039,155.298004 
	C47.075005,154.835648 47.200539,154.666489 47.070686,154.311234 
	C46.815304,154.125153 46.957577,154.088226 46.899620,154.133423 
	C46.461288,153.356842 45.766533,152.888275 44.659378,152.447632 
	C40.581974,150.896790 39.251511,147.353455 37.293808,143.923004 
z"/>
<path fill="#A1B6F2" opacity="1.000000" stroke="none" 
	d="
M23.833508,86.774963 
	C24.558739,86.956360 24.971687,86.963699 25.693804,86.990479 
	C27.348085,87.494904 28.172089,88.508881 28.910938,90.123520 
	C29.541912,94.976128 29.773504,99.432556 28.218847,103.777954 
	C27.517212,105.739075 27.613592,107.678879 28.332832,109.617607 
	C28.736950,110.706909 29.401363,111.913460 29.120119,112.972954 
	C27.320612,119.751892 30.902439,125.466354 32.570122,131.950577 
	C32.436592,132.588638 32.329468,132.828766 31.884245,133.265518 
	C31.215065,133.521347 30.779856,133.655457 30.576937,133.478561 
	C25.076126,128.683105 19.725830,123.723846 14.641136,118.265717 
	C15.133800,117.587639 15.560036,117.319733 16.052692,117.250877 
	C20.847794,116.580727 20.889545,116.556030 18.255638,112.877129 
	C17.282391,111.517746 16.839350,110.076469 17.888912,108.799278 
	C19.989149,106.243538 19.506271,103.663185 18.550140,100.901360 
	C17.209078,97.027634 17.657272,93.273636 19.530296,89.368378 
	C19.445297,88.820251 19.450649,88.593369 19.573332,88.041885 
	C19.966105,87.333725 20.315741,87.034477 21.058838,86.681580 
	C22.102087,86.509468 22.812717,86.502747 23.833508,86.774963 
z"/>
<path fill="#6157B0" opacity="1.000000" stroke="none" 
	d="
M144.964447,104.303604 
	C149.714874,101.359428 153.166229,97.491104 156.972443,93.558167 
	C157.268509,92.872871 157.503769,92.546654 158.120667,92.162918 
	C158.920990,91.763550 159.480103,91.548805 160.038605,90.818924 
	C160.463669,90.255684 160.737015,89.957771 161.278473,89.494492 
	C162.036850,88.967133 162.565826,88.648155 163.280655,88.041931 
	C163.699066,87.710739 163.875427,87.586395 164.345200,87.316681 
	C165.699310,86.800766 166.766296,86.477524 168.180862,86.951523 
	C169.013977,87.923790 169.293762,88.806519 169.632111,90.038551 
	C169.965942,94.230217 167.370728,96.667580 164.768448,99.165825 
	C166.890945,100.553658 169.704788,99.757629 170.459015,102.788788 
	C170.255264,104.177429 169.478485,104.630821 168.253204,105.027802 
	C167.144989,105.314072 166.418289,105.549583 167.317123,106.858994 
	C167.977829,108.835129 167.109955,110.201378 166.252838,111.897736 
	C164.823807,113.985886 162.836777,115.026176 161.188049,116.879120 
	C160.819992,117.255440 160.671432,117.403511 160.069595,117.981003 
	C159.462418,118.548973 159.308517,118.687546 158.919373,119.029297 
	C158.523727,119.364487 158.363358,119.496506 157.958405,119.822792 
	C157.039017,120.520454 156.389221,121.066826 155.225739,121.230820 
	C154.747513,121.035606 154.588470,120.888435 154.244110,120.472885 
	C153.391174,118.851860 152.251633,117.609650 153.201294,115.608498 
	C154.741867,113.248596 156.215759,111.229424 156.439850,108.283569 
	C156.889496,106.509315 157.816910,105.426590 158.838837,104.393517 
	C160.432266,102.782715 159.265045,102.283752 157.490997,101.835922 
	C154.278397,100.395813 152.737457,102.233223 151.067841,104.520103 
	C150.711868,104.961029 150.559586,105.129845 150.146103,105.518051 
	C147.020187,106.844200 146.013824,110.081604 143.009857,111.426376 
	C141.925629,111.154953 141.507263,110.655922 141.517944,109.487381 
	C141.568146,106.908836 143.058914,105.661804 144.964447,104.303604 
z"/>
<path fill="#181617" opacity="1.000000" stroke="none" 
	d="
M98.472870,193.816803 
	C98.124146,192.618118 97.855667,191.728088 99.836502,191.738419 
	C134.016235,191.916611 168.196808,191.935257 202.377121,192.018890 
	C203.807953,192.022400 205.402710,191.551483 206.708557,193.323151 
	C178.532425,193.814468 150.224884,193.891800 121.917313,193.949646 
	C114.256004,193.965302 106.594589,193.921936 98.472870,193.816803 
z"/>
<path fill="#6F6FC6" opacity="1.000000" stroke="none" 
	d="
M115.835205,134.239716 
	C115.930916,133.591644 116.120903,133.325134 116.630646,133.036224 
	C119.005081,131.112167 120.993034,130.826324 122.609482,133.583145 
	C124.086906,136.102844 126.170250,136.935669 129.298386,135.911331 
	C130.622269,135.676498 131.595062,135.549683 132.893890,135.958115 
	C134.755554,138.536621 133.427567,140.418884 131.924744,142.590881 
	C130.209015,144.305283 128.461136,145.455215 126.883850,147.294128 
	C125.874268,148.347977 125.175903,149.227112 124.134415,150.239288 
	C121.676018,151.189835 120.397064,152.869034 119.155045,155.068329 
	C116.193863,156.238647 115.132210,155.134750 115.462448,152.447296 
	C115.579704,151.492966 116.570503,150.152435 115.786850,149.657684 
	C110.360374,146.231705 114.436470,142.154449 114.869354,138.010040 
	C115.015816,136.577240 115.566216,135.609695 115.835205,134.239716 
z"/>
<path fill="#6A65BB" opacity="1.000000" stroke="none" 
	d="
M133.289124,136.219482 
	C132.216522,136.319061 131.425827,136.634460 130.314819,136.972870 
	C128.498123,135.257614 130.455887,133.733963 130.298599,131.745911 
	C130.345932,130.207016 130.851807,129.130463 131.852066,128.570801 
	C135.437424,126.564705 134.165176,124.953964 131.420868,123.040253 
	C130.664627,119.641228 133.287827,118.402718 134.814880,116.593201 
	C136.616882,114.457863 138.882385,112.739113 140.719208,110.139320 
	C140.929337,109.846458 140.941956,109.418045 140.969055,109.205460 
	C141.139542,108.841507 141.282913,108.690125 141.684692,108.714951 
	C142.128586,109.471992 142.314072,110.052826 142.752914,110.812599 
	C144.332397,112.658737 142.501251,113.883530 142.345612,115.677979 
	C142.254837,118.876663 140.294739,121.289948 140.465973,124.480362 
	C141.066574,125.966995 141.550110,127.154907 142.392670,128.533752 
	C142.895889,129.649826 142.984146,130.516373 142.889313,131.726532 
	C142.775131,132.255005 142.708054,132.460434 142.484009,132.946625 
	C141.801270,133.882675 141.225464,134.500427 140.640457,135.510071 
	C140.182892,136.102341 139.862427,136.383102 139.209213,136.753571 
	C137.148926,136.927582 135.652939,139.160431 133.611328,137.264587 
	C133.554779,136.797928 133.562897,136.616623 133.289124,136.219482 
z"/>
<path fill="#F4F9FE" opacity="1.000000" stroke="none" 
	d="
M14.547255,117.806839 
	C20.468517,122.381432 26.124050,126.714714 30.441799,132.916748 
	C32.964127,134.440735 34.587078,136.283569 35.093281,139.489670 
	C28.173622,140.292984 26.476664,134.081024 23.651770,130.207703 
	C19.673246,124.752579 14.679238,121.763702 8.623928,120.112000 
	C6.502699,119.533379 5.895534,118.692528 6.001502,116.402130 
	C6.918787,115.443924 7.869140,115.727684 9.167324,115.970749 
	C11.110037,116.570038 12.831702,116.666435 14.547255,117.806839 
z"/>
<path fill="#C3D1FC" opacity="1.000000" stroke="none" 
	d="
M9.305214,116.371521 
	C8.269605,116.578087 7.442092,116.402367 6.307304,116.112991 
	C5.581244,115.975075 5.162458,115.950829 4.432032,115.901917 
	C4.077218,109.219772 4.034047,102.562279 3.960441,95.432648 
	C4.281641,91.293243 2.951558,87.236885 6.679719,84.036705 
	C7.250928,83.761124 7.542225,83.734970 8.168930,83.992691 
	C8.645710,84.533157 8.787083,84.789742 9.057602,85.466049 
	C9.951497,89.894073 8.585505,93.772743 8.463045,97.729218 
	C8.273602,103.849770 8.488702,109.941284 9.305214,116.371521 
z"/>
<path fill="#A6B3E2" opacity="1.000000" stroke="none" 
	d="
M28.281487,90.232178 
	C27.360718,89.196449 26.716211,88.414413 26.037338,87.321152 
	C29.715008,85.739433 32.622421,87.707108 35.769142,89.702293 
	C36.564926,90.659264 36.740482,91.422287 36.310940,92.648056 
	C36.048698,95.048164 35.989754,97.087074 35.964340,99.562363 
	C38.171982,105.390129 38.811222,111.298836 41.733383,116.836128 
	C41.959724,117.566711 42.011196,117.958206 42.088928,118.644875 
	C41.909607,119.103645 41.704029,119.267250 41.111153,119.510384 
	C39.043461,119.465935 37.728264,118.667404 36.475517,117.058914 
	C35.590916,113.655441 34.932426,110.619698 33.297398,107.820824 
	C31.564877,104.855057 31.391563,101.443451 31.860279,98.123230 
	C32.330654,94.791267 31.456804,92.255630 28.281487,90.232178 
z"/>
<path fill="#9395BC" opacity="1.000000" stroke="none" 
	d="
M96.998573,182.930923 
	C96.871902,186.443130 96.407738,189.747711 96.009933,193.466156 
	C95.007286,197.102203 92.524391,198.111923 89.432823,197.971619 
	C86.282387,197.828674 83.138870,197.533401 79.610046,197.192932 
	C78.740196,197.369904 78.214172,197.488541 77.294724,197.226898 
	C74.917305,196.974930 72.894966,196.933441 70.450439,196.793365 
	C69.397186,196.124146 69.266571,195.403580 69.567368,194.258438 
	C70.129311,193.583725 70.581673,193.378632 71.461548,193.294556 
	C74.376831,193.935593 76.965179,194.191025 79.940567,194.172485 
	C89.778351,195.575333 89.780579,195.576141 92.912796,186.948517 
	C93.253471,186.010132 93.583870,185.070618 94.347855,183.919037 
	C95.164795,183.069901 95.843697,182.735672 96.998573,182.930923 
z"/>
<path fill="#6E6EB9" opacity="1.000000" stroke="none" 
	d="
M130.749512,131.774292 
	C132.169022,133.777100 129.972458,134.817215 130.023178,136.676056 
	C126.340080,138.474533 123.164207,138.457657 121.565170,134.090927 
	C120.722237,131.788971 119.169701,132.400803 117.220131,132.939362 
	C119.129593,129.829468 122.022118,127.329895 125.256104,124.755951 
	C127.203270,125.373558 126.602318,126.720108 126.493111,128.268112 
	C126.044106,132.023041 129.041107,130.719482 130.749512,131.774292 
z"/>
<path fill="#7A80C8" opacity="1.000000" stroke="none" 
	d="
M94.723282,154.262390 
	C95.144897,153.765350 95.432152,153.568283 95.845779,153.139679 
	C96.146996,152.778030 96.321831,152.647964 96.666283,152.238464 
	C97.689903,151.014603 98.543915,150.070160 99.686218,148.973785 
	C100.161789,148.707626 100.349060,148.593399 100.756668,148.234772 
	C100.976997,147.990387 101.003281,147.997009 100.994705,147.985886 
	C101.330116,147.645676 101.743370,147.486160 102.544632,147.579514 
	C103.023758,147.860947 103.174393,148.035248 103.422943,148.539307 
	C103.605011,149.347443 103.599648,149.869720 103.812790,150.292557 
	C107.516159,157.639297 107.521088,157.636810 100.340118,162.437866 
	C95.064484,162.226654 94.672386,161.463547 96.279984,155.798859 
	C95.784622,155.662842 95.584137,155.597015 95.114197,155.349579 
	C94.759476,154.966064 94.674194,154.764206 94.723282,154.262390 
z"/>
<path fill="#51468A" opacity="1.000000" stroke="none" 
	d="
M216.155426,49.462772 
	C212.422714,46.038864 208.402954,49.934521 204.249786,49.681946 
	C203.012253,50.971764 201.790924,51.139179 200.119751,50.994690 
	C199.276520,50.847870 198.804092,50.735809 197.987137,50.544800 
	C197.174896,50.410328 196.708298,50.360531 195.886505,50.346203 
	C192.123795,50.540257 189.105347,52.360901 185.376373,52.602989 
	C184.831558,52.352669 184.643494,52.195000 184.629242,51.712837 
	C185.221024,49.934967 185.423203,48.310703 187.699646,47.972969 
	C190.963608,46.442646 194.117126,47.160419 197.623566,47.108475 
	C202.436554,47.046646 206.829391,46.991642 211.217010,46.810169 
	C213.322510,46.723083 215.083130,47.105625 216.155426,49.462772 
z"/>
<path fill="#413572" opacity="1.000000" stroke="none" 
	d="
M199.721756,79.785568 
	C203.932404,80.179863 207.358124,78.245056 211.025787,77.360023 
	C212.674545,76.962166 214.116119,76.184113 215.849487,77.688690 
	C215.323883,79.710991 212.530594,78.100204 211.995087,80.703217 
	C205.609360,80.105629 200.226562,83.043739 194.237915,85.080620 
	C193.217514,85.682388 192.493591,85.793633 191.379425,85.435829 
	C191.170486,81.189003 195.435150,81.959526 197.616074,79.734619 
	C198.440002,79.414009 198.932770,79.412987 199.721756,79.785568 
z"/>
<path fill="#878BCF" opacity="1.000000" stroke="none" 
	d="
M85.864647,162.258240 
	C87.563866,161.131546 88.906685,160.119263 90.556625,159.033722 
	C91.098381,158.842316 91.333031,158.724182 91.907867,158.805939 
	C92.514534,162.612976 92.475136,166.172974 90.276230,169.627411 
	C86.921562,170.034409 84.040283,169.818512 81.476715,167.358704 
	C81.298241,166.733627 81.272575,166.473785 81.316208,165.831360 
	C82.294884,163.800385 83.740303,162.870392 85.864647,162.258240 
z"/>
<path fill="#A6B3E2" opacity="1.000000" stroke="none" 
	d="
M58.778496,140.723145 
	C54.132435,139.553833 53.082657,134.329330 49.473564,131.635391 
	C48.506027,130.913193 48.220589,129.310989 46.359833,129.018127 
	C44.362942,127.947205 43.794754,126.243958 43.209816,124.139244 
	C43.184151,123.229424 43.315697,122.734505 43.852516,122.014755 
	C49.964188,127.211075 54.130054,133.950317 58.778496,140.723145 
z"/>
<path fill="#9298CA" opacity="1.000000" stroke="none" 
	d="
M69.958740,193.735840 
	C70.026619,194.741074 70.020485,195.393860 70.021301,196.370728 
	C65.308823,197.259964 63.306786,194.906860 63.226955,190.418716 
	C63.182716,187.931274 63.052681,185.445358 62.970024,182.502914 
	C62.303009,180.780701 62.292969,179.494858 63.203598,177.994644 
	C66.143951,179.208344 65.917358,181.832581 66.217804,184.189651 
	C66.502533,186.423569 66.018547,188.786667 67.655754,191.084045 
	C68.074852,191.501999 68.259712,191.652084 68.722855,192.029037 
	C69.355507,192.584839 69.647194,192.962921 69.958740,193.735840 
z"/>
<path fill="#F1F8FE" opacity="1.000000" stroke="none" 
	d="
M41.933384,116.759033 
	C37.552628,112.599945 36.140102,106.948303 35.968445,100.426178 
	C37.665199,100.117447 38.614758,100.927437 38.965515,102.639847 
	C39.903629,107.219711 40.953217,111.776756 41.933384,116.759033 
z"/>
<path fill="#6D63A1" opacity="1.000000" stroke="none" 
	d="
M140.613495,109.956711 
	C140.042923,114.170174 136.341965,116.423775 133.748093,119.473900 
	C133.013519,120.337685 131.912064,120.858421 131.962006,122.571495 
	C131.396027,123.627617 130.637192,123.874718 129.383392,123.891998 
	C128.723419,123.741837 128.471786,123.634819 127.882004,123.295700 
	C131.177597,118.125412 136.009277,114.362762 140.613495,109.956711 
z"/>
<path fill="#959ACE" opacity="1.000000" stroke="none" 
	d="
M63.151840,152.320251 
	C62.974815,150.114014 61.690239,149.102310 60.347992,148.149490 
	C58.494087,146.833435 58.785271,145.162964 59.802315,143.172241 
	C62.615543,145.532593 64.934059,148.287872 66.964966,151.711655 
	C67.267448,152.186111 67.392998,152.359314 67.767105,152.735443 
	C68.015678,152.938354 68.018112,153.002716 68.044937,152.984894 
	C68.933647,153.910736 69.768219,154.865753 69.275146,156.625488 
	C65.189140,158.181839 65.297775,154.003677 63.151840,152.320251 
z"/>
<path fill="#7C7DB8" opacity="1.000000" stroke="none" 
	d="
M115.528114,134.061005 
	C117.121346,134.571701 116.795197,135.485138 116.113892,136.722229 
	C112.407249,141.409683 109.554375,146.607819 103.317947,148.233612 
	C103.028336,148.008499 102.913795,147.895584 102.853241,147.842667 
	C102.539894,147.397858 102.456657,146.972794 102.744507,146.242859 
	C107.040565,142.048416 111.135139,138.125641 115.528114,134.061005 
z"/>
<path fill="#3B2E7E" opacity="1.000000" stroke="none" 
	d="
M217.271393,70.287247 
	C214.854233,64.845329 215.854050,59.118446 214.395386,53.782280 
	C214.182587,53.003788 215.161316,52.404247 216.323807,52.059624 
	C218.418961,53.862679 217.035294,56.129471 217.426392,58.560081 
	C217.549438,62.344402 217.723755,65.722839 217.870026,69.523911 
	C217.730148,70.139420 217.618301,70.332291 217.271393,70.287247 
z"/>
<path fill="#F2F4FD" opacity="1.000000" stroke="none" 
	d="
M85.881157,161.985031 
	C85.325752,163.448502 84.418983,164.739029 82.352524,165.067749 
	C77.664749,166.018936 75.119911,163.475540 72.996048,159.615540 
	C77.386284,159.271851 81.012245,162.477417 85.881157,161.985031 
z"/>
<path fill="#F4F7FF" opacity="1.000000" stroke="none" 
	d="
M8.229429,84.212090 
	C7.793540,83.939629 7.625646,83.917381 7.208692,83.841209 
	C8.984984,79.474236 12.584075,81.647507 15.550700,81.908417 
	C17.118780,82.046333 18.374439,83.455727 18.969585,85.491875 
	C17.489340,87.423897 15.724483,86.123985 13.704734,86.187698 
	C13.093172,86.096497 12.850153,86.051666 12.247884,85.919220 
	C10.739609,85.421288 9.504016,85.225365 8.229429,84.212090 
z"/>
<path fill="#9CA4D3" opacity="1.000000" stroke="none" 
	d="
M52.047600,162.346039 
	C54.658165,161.972260 55.843395,164.103180 57.694954,165.853729 
	C59.936131,167.282867 60.930149,169.067108 60.822403,171.755112 
	C60.638908,172.318069 60.528465,172.530075 60.124847,172.948502 
	C56.149277,170.484177 54.436893,166.357864 52.047600,162.346039 
z"/>
<path fill="#F4F9FE" opacity="1.000000" stroke="none" 
	d="
M37.123138,144.038239 
	C40.320515,145.624756 41.265022,149.565491 44.539810,151.892487 
	C44.987900,152.227112 45.151672,152.391937 45.056519,152.790100 
	C38.895191,152.469208 37.192532,150.585632 37.123138,144.038239 
z"/>
<path fill="#EDEBF8" opacity="1.000000" stroke="none" 
	d="
M158.818024,92.827095 
	C158.141907,92.911499 157.847855,92.992989 157.352966,93.215622 
	C156.965546,88.392937 159.609055,85.885559 164.748993,85.150772 
	C165.732040,86.357964 165.292984,87.063370 164.145691,87.742172 
	C163.834335,87.872795 163.931778,87.866859 163.902344,87.827927 
	C163.479767,88.588829 162.789154,89.114433 161.832306,89.786041 
	C161.288788,89.890984 161.105545,89.989929 160.943359,90.353470 
	C160.700958,91.542252 160.163757,92.315079 158.818024,92.827095 
z"/>
<path fill="#EDEBF8" opacity="1.000000" stroke="none" 
	d="
M164.931015,84.936691 
	C165.587250,80.837021 167.800430,78.352798 172.411835,77.976250 
	C173.790497,80.913246 170.782135,81.582542 169.496826,83.603455 
	C169.096237,84.001312 168.931137,84.155769 168.501740,84.523750 
	C167.473450,85.256721 166.675735,85.662460 165.419250,85.309517 
	C165.132523,85.130882 164.998779,85.000809 164.931015,84.936691 
z"/>
<path fill="#EFEFF8" opacity="1.000000" stroke="none" 
	d="
M142.099762,108.602913 
	C141.943085,108.891167 141.471786,108.962166 141.233978,108.977524 
	C139.936768,106.928307 139.508209,104.829636 140.581680,102.587051 
	C141.948334,103.095566 143.233536,103.573776 144.900833,104.089874 
	C145.161011,106.164482 143.323730,106.961273 142.099762,108.602913 
z"/>
<path fill="#EDEBF8" opacity="1.000000" stroke="none" 
	d="
M173.971161,71.677292 
	C174.747253,71.245483 175.511002,71.187668 176.651245,71.210495 
	C177.645386,71.797737 178.444168,72.040131 179.136475,72.913673 
	C179.260529,74.116226 178.613907,74.646515 177.764771,75.403641 
	C176.878494,76.150055 176.224380,76.685394 175.222885,77.290512 
	C174.510849,77.555824 174.083939,77.584114 173.369598,77.342300 
	C173.378281,75.469933 173.668549,73.760612 173.971161,71.677292 
z"/>
<path fill="#574E95" opacity="1.000000" stroke="none" 
	d="
M173.042618,77.389221 
	C173.491760,77.116867 173.895493,77.054466 174.884827,77.202042 
	C175.713303,77.867500 175.854462,78.352615 175.872040,79.248993 
	C175.066971,81.934937 173.146896,83.219353 170.993347,84.745468 
	C169.810806,84.966957 169.045288,84.840263 168.078583,84.127640 
	C169.442642,82.080742 171.059387,80.342583 172.728943,78.287659 
	C172.781738,77.970879 172.997223,77.599182 173.042618,77.389221 
z"/>
<path fill="#1F1D1D" opacity="1.000000" stroke="none" 
	d="
M96.329071,66.405365 
	C100.061539,66.611282 100.156609,66.742325 99.841141,70.718109 
	C95.985458,72.073067 95.981659,69.554482 96.329071,66.405365 
z"/>
<path fill="#F2F4FD" opacity="1.000000" stroke="none" 
	d="
M69.238136,156.967010 
	C68.883362,155.641220 68.516518,154.628494 68.110710,153.291412 
	C71.958626,152.526016 73.420403,154.424194 73.062469,158.509918 
	C73.094063,158.911667 73.012390,158.987961 72.971893,159.026474 
	C71.747787,159.538177 70.923218,158.766891 69.796677,158.018677 
	C69.449936,157.632690 69.337997,157.456375 69.238136,156.967010 
z"/>
<path fill="#9CA4D3" opacity="1.000000" stroke="none" 
	d="
M64.213562,177.636673 
	C62.761871,178.832794 63.070587,180.123611 62.995342,181.676910 
	C61.964012,179.328278 60.949287,176.609482 59.883121,173.522812 
	C59.831676,173.154938 59.953907,173.042557 60.014374,172.985657 
	C63.827843,172.075470 64.279327,174.534607 64.213562,177.636673 
z"/>
<path fill="#DFD8F4" opacity="1.000000" stroke="none" 
	d="
M197.781006,46.850883 
	C195.054352,48.196106 191.929901,47.648357 188.432343,47.883705 
	C190.797409,44.712307 194.223969,46.122936 197.781006,46.850883 
z"/>
<path fill="#252138" opacity="1.000000" stroke="none" 
	d="
M183.390121,63.193748 
	C183.026276,60.057072 183.012436,57.043201 182.993546,53.581856 
	C183.150192,53.057087 183.311905,52.979801 183.728561,52.817204 
	C184.230576,52.685192 184.477646,52.638489 185.045227,52.790466 
	C185.496307,53.203445 185.626862,53.417747 185.875122,53.988808 
	C186.372299,56.350494 185.973938,58.281246 185.361328,60.560623 
	C185.165878,61.402920 185.000076,61.867554 184.582565,62.624115 
	C184.162888,63.059868 183.951508,63.188210 183.390121,63.193748 
z"/>
<path fill="#A6B9EA" opacity="1.000000" stroke="none" 
	d="
M13.037344,85.532166 
	C14.881509,84.711479 16.581718,85.211212 18.640774,85.850426 
	C19.183964,85.880165 19.346565,85.925117 19.756275,86.024582 
	C20.148516,86.199097 20.293646,86.319092 20.457497,86.720886 
	C20.430292,87.185310 20.384363,87.367928 20.167656,87.775513 
	C19.996878,88.000481 20.000076,88.000000 19.999725,87.998337 
	C17.082645,89.304649 14.919335,88.068398 13.037344,85.532166 
z"/>
<path fill="#1F1D1D" opacity="1.000000" stroke="none" 
	d="
M105.412270,71.020294 
	C106.244118,68.120903 107.917763,68.263542 109.927429,70.578278 
	C108.606186,70.990425 107.214394,71.048820 105.412270,71.020294 
z"/>
<path fill="#7A80C8" opacity="1.000000" stroke="none" 
	d="
M92.410538,159.120911 
	C91.812515,158.992096 91.622894,158.986511 91.148499,158.970673 
	C91.048378,157.200821 92.928619,156.670868 93.785599,154.982910 
	C94.007706,154.728043 94.429214,154.613190 94.623055,154.713898 
	C94.816895,154.814606 94.927010,154.925430 94.982208,154.980698 
	C96.437286,157.566513 95.204376,158.709122 92.410538,159.120911 
z"/>
<path fill="#9CA4D3" opacity="1.000000" stroke="none" 
	d="
M48.729633,157.459747 
	C51.083641,156.959732 52.041553,158.250946 51.893852,160.985474 
	C50.181026,160.753159 49.600986,159.198288 48.729633,157.459747 
z"/>
<path fill="#6A65BB" opacity="1.000000" stroke="none" 
	d="
M125.370590,129.198456 
	C125.269699,127.779671 125.523354,126.586586 125.681938,125.032219 
	C125.586868,124.670929 125.650284,124.672409 125.681290,124.679077 
	C126.158516,124.710190 126.528412,124.548714 126.944923,123.926865 
	C127.057755,123.627747 127.174881,123.343033 127.320175,123.292198 
	C127.726341,123.351868 127.987198,123.462372 128.455704,123.944031 
	C128.970856,126.758293 128.719604,128.880066 125.370590,129.198456 
z"/>
<path fill="#95A2E4" opacity="1.000000" stroke="none" 
	d="
M44.091686,121.561668 
	C44.101700,122.262810 44.058754,122.765755 44.008953,123.646225 
	C41.204758,123.886940 40.208359,122.301979 40.751114,119.348289 
	C41.182632,119.012215 41.369308,119.004112 41.835587,118.968033 
	C42.425369,119.057190 42.665905,119.257828 42.923218,119.764557 
	C43.160706,120.147240 43.311779,120.307320 43.663010,120.729996 
	C43.863159,120.992592 44.038723,121.363464 44.091686,121.561668 
z"/>
<path fill="#6D63A1" opacity="1.000000" stroke="none" 
	d="
M217.516876,58.571701 
	C216.387146,56.992287 217.091400,54.855209 216.722351,52.414055 
	C216.710739,51.847622 216.758072,51.683208 216.890335,51.276558 
	C217.935211,53.345314 217.519608,55.787907 217.516876,58.571701 
z"/>
<path fill="#F1F8FE" opacity="1.000000" stroke="none" 
	d="
M36.432671,92.948143 
	C36.047958,92.260040 35.988277,91.510826 35.933697,90.385864 
	C38.124363,90.424683 38.631527,91.316986 36.432671,92.948143 
z"/>
<path fill="#6D63A1" opacity="1.000000" stroke="none" 
	d="
M217.051453,70.361191 
	C217.036346,70.049324 217.436905,69.980072 217.639450,69.963303 
	C217.968689,71.449104 218.095383,72.951668 218.065613,74.720123 
	C217.651688,74.529350 217.394211,74.072685 217.109024,73.343483 
	C216.871155,72.880005 216.661011,72.689072 216.765076,72.210648 
	C217.075058,71.506454 217.070816,71.089760 217.051453,70.361191 
z"/>
<path fill="#9CA4D3" opacity="1.000000" stroke="none" 
	d="
M45.009289,153.245392 
	C44.797592,153.023407 44.856762,152.543854 44.840443,152.303070 
	C45.825176,152.068878 46.698101,152.261627 46.856422,153.824905 
	C46.301437,153.941528 45.761211,153.704453 45.009289,153.245392 
z"/>
<path fill="#A6B3E2" opacity="1.000000" stroke="none" 
	d="
M20.247349,87.198730 
	C20.004782,87.015800 20.001793,86.547050 20.002588,86.313072 
	C21.237858,85.989861 22.488857,85.700409 23.902802,86.664932 
	C23.353378,86.968834 22.560966,86.988647 21.373550,87.014473 
	C20.815670,87.140869 20.652794,87.261261 20.247349,87.198730 
z"/>
<path fill="#DFD8F4" opacity="1.000000" stroke="none" 
	d="
M102.631012,146.017456 
	C102.920883,146.376694 102.895782,146.782181 102.831680,147.488708 
	C102.392006,147.837173 101.991341,147.884583 101.288391,147.953384 
	C101.014420,147.048935 101.343269,146.332260 102.631012,146.017456 
z"/>
<path fill="#9298CA" opacity="1.000000" stroke="none" 
	d="
M77.139954,197.171844 
	C77.447403,197.016327 77.955170,197.016205 78.845352,197.048569 
	C78.646156,197.527679 78.025246,197.673065 77.139954,197.171844 
z"/>
<path fill="#6E6EB9" opacity="1.000000" stroke="none" 
	d="
M126.750603,123.696991 
	C126.820305,123.964745 126.582870,124.301743 126.028854,124.662247 
	C125.956017,124.379242 126.199738,124.072739 126.750603,123.696991 
z"/>
<path fill="#A6B3E2" opacity="1.000000" stroke="none" 
	d="
M43.800922,120.767670 
	C43.560852,120.887070 43.328518,120.696304 43.087891,120.203735 
	C43.327908,120.073662 43.570927,120.258858 43.800922,120.767670 
z"/>
<path fill="#6A65BB" opacity="1.000000" stroke="none" 
	d="
M127.536118,123.113274 
	C127.786964,123.049156 128.030090,123.034706 128.638565,123.017189 
	C129.174484,123.467834 129.066696,123.841179 128.353745,124.077354 
	C128.026993,124.020576 127.706001,123.666153 127.585739,123.453758 
	C127.465477,123.241364 127.528404,123.162949 127.536118,123.113274 
z"/>
<path fill="#F4F9FE" opacity="1.000000" stroke="none" 
	d="
M35.879684,140.937897 
	C35.482162,140.813095 35.272808,140.668961 35.007828,140.285797 
	C34.899746,140.123032 34.941124,140.070618 34.961502,140.044174 
	C35.478981,139.837189 35.894070,139.963577 36.268497,140.714844 
	C36.298264,141.076157 36.015404,140.994797 35.879684,140.937897 
z"/>
<path fill="#DFD8F4" opacity="1.000000" stroke="none" 
	d="
M100.766495,148.069702 
	C100.982567,148.367584 100.814491,148.636002 100.223640,148.808746 
	C100.102448,148.540619 100.296280,148.316345 100.766495,148.069702 
z"/>
<path fill="#E9E8E8" opacity="1.000000" stroke="none" 
	d="
M185.134827,52.736542 
	C184.895477,52.932682 184.415497,52.940590 184.199509,52.836243 
	C184.077545,52.482841 184.171585,52.233795 184.534363,51.686546 
	C184.803085,51.388344 185.002975,51.662102 185.088470,51.808445 
	C185.240692,52.149990 185.307434,52.345196 185.134827,52.736542 
z"/>
<path fill="#F2F4FD" opacity="1.000000" stroke="none" 
	d="
M67.918289,152.742355 
	C67.659294,152.944473 67.389023,152.794998 67.173378,152.251434 
	C67.422646,152.121475 67.648979,152.299286 67.918289,152.742355 
z"/>
<path fill="#E7EFFD" opacity="1.000000" stroke="none" 
	d="
M96.643562,152.068314 
	C96.824760,152.294632 96.685219,152.563568 96.194702,152.836975 
	C96.053650,152.613312 96.213341,152.369797 96.643562,152.068314 
z"/>
<path fill="#9CA4D3" opacity="1.000000" stroke="none" 
	d="
M46.806549,154.351532 
	C47.196217,154.205231 47.679607,154.213654 47.126438,154.914001 
	C46.949474,155.004822 46.797791,154.577896 46.806549,154.351532 
z"/>
<path fill="#E7EFFD" opacity="1.000000" stroke="none" 
	d="
M94.840324,154.602188 
	C94.816895,154.814606 94.407219,154.819336 94.207458,154.773682 
	C94.106766,154.474701 94.270927,154.274811 94.678925,154.045395 
	C94.857651,153.962402 94.863754,154.389771 94.840324,154.602188 
z"/>
<path fill="#FEFEFE" opacity="1.000000" stroke="none" 
	d="
M159.823578,117.138809 
	C161.517365,115.426308 163.050354,113.894226 164.865601,112.193390 
	C167.715088,111.101357 170.865219,110.929817 171.336517,106.939896 
	C171.424316,105.792999 171.572647,104.981270 171.987366,103.921906 
	C172.210403,103.471970 172.313705,103.299515 172.616394,102.901962 
	C172.977097,102.559334 173.138412,102.441795 173.557587,102.174698 
	C174.164032,101.839828 174.517609,101.664612 175.143585,101.379654 
	C175.592667,101.191330 175.773788,101.121651 176.221954,100.944229 
	C177.310684,100.573914 177.688400,99.956070 177.901611,98.844643 
	C178.478607,96.176155 180.196106,94.677940 182.092010,92.896996 
	C182.535233,92.535194 182.718460,92.397896 183.184784,92.067383 
	C186.009705,90.331635 187.719727,87.681290 190.899017,86.427002 
	C191.949844,86.158760 192.643326,86.212860 193.556030,86.807907 
	C193.821945,115.049294 193.766357,143.040268 193.928665,171.029984 
	C193.949722,174.663330 193.185379,175.852814 189.307693,175.824524 
	C162.151016,175.626343 134.992447,175.691223 107.374924,175.551468 
	C105.514351,174.424973 104.282677,173.325974 104.869583,171.046509 
	C113.503128,168.776154 117.481331,161.784714 122.133377,155.562485 
	C122.724930,154.771271 122.940132,153.665466 123.689728,153.034500 
	C125.833931,151.229599 128.121918,150.027466 131.077576,149.465240 
	C133.804962,148.946411 131.347885,144.150070 134.666107,143.096161 
	C135.295090,142.896408 135.889847,142.599503 136.559052,141.939911 
	C136.645096,141.111923 136.735641,140.909988 137.059647,140.462814 
	C140.404007,139.025330 141.017776,135.723221 143.151443,133.263870 
	C143.538849,132.859161 143.718536,132.720367 144.228638,132.486298 
	C144.975861,132.472260 145.375351,132.603485 145.990967,132.931488 
	C146.403702,133.053467 146.576035,133.048630 146.822174,132.766846 
	C148.474426,129.133514 151.935303,127.283081 153.834290,123.746666 
	C154.146667,123.267738 154.280426,123.082359 154.649445,122.649368 
	C156.264297,121.847977 156.392136,120.214684 157.726959,119.183914 
	C157.982269,118.965721 158.000717,119.000595 157.983688,118.990715 
	C158.223297,118.787239 158.459686,118.571449 158.825653,118.145599 
	C158.975479,117.957726 159.002151,117.998100 158.980408,117.987610 
	C159.227051,117.793869 159.461746,117.574577 159.823578,117.138809 
z"/>
<path fill="#7D81D5" opacity="1.000000" stroke="none" 
	d="
M91.963318,159.365295 
	C93.385033,158.258087 95.113289,157.835648 95.021606,155.381592 
	C96.504349,155.195190 98.270752,153.037064 99.392937,155.273560 
	C100.395546,157.271729 97.816505,156.781662 97.201569,157.772705 
	C95.605682,160.344711 96.172440,161.756241 99.630989,161.990509 
	C102.224510,162.811234 102.632416,164.801773 103.131645,167.125793 
	C103.261169,168.432922 103.310417,169.382065 103.430290,170.678711 
	C103.361046,171.492889 103.184212,171.912003 102.632996,172.496338 
	C101.170227,173.496155 99.678711,173.915298 98.975021,175.654861 
	C98.982948,176.527069 99.057549,177.099396 99.387108,177.909851 
	C98.943016,179.668823 98.379738,181.164886 97.576263,182.899734 
	C96.755386,183.352341 96.174706,183.566147 95.306778,183.903519 
	C94.833115,184.150192 94.646698,184.273331 94.157791,184.251984 
	C93.431503,182.169861 92.859406,180.301376 91.239487,178.529297 
	C90.498459,175.351639 88.223549,172.795898 89.760925,169.298721 
	C91.326706,166.055161 90.080711,162.572372 91.963318,159.365295 
z"/>
<path fill="#212213" opacity="1.000000" stroke="none" 
	d="
M101.043579,182.922455 
	C101.036385,181.174393 101.151718,179.766144 102.772575,179.421906 
	C103.935181,179.174957 104.584435,180.080261 104.821762,181.097733 
	C105.139565,182.460129 104.972969,183.792099 103.593956,184.527130 
	C102.301941,185.215805 101.385483,184.797195 101.043579,182.922455 
z"/>
<path fill="#F4F5FB" opacity="1.000000" stroke="none" 
	d="
M102.009521,172.256622 
	C102.674240,172.046112 102.915710,171.881485 103.171219,171.401581 
	C103.427254,171.026291 103.595116,170.857529 104.412674,170.877106 
	C104.796928,172.766724 107.143570,173.141891 106.937378,175.116470 
	C106.915375,175.431000 106.980759,175.697952 106.983475,175.835358 
	C106.827202,176.094254 106.668205,176.215759 106.256317,176.175629 
	C104.995453,175.937622 103.987503,175.861282 102.598946,175.761993 
	C101.758240,175.475342 101.441002,175.092896 101.212524,174.212540 
	C101.187996,173.309967 101.354645,172.836105 102.009521,172.256622 
z"/>
<path fill="#7C7DB8" opacity="1.000000" stroke="none" 
	d="
M101.988892,172.088745 
	C102.238113,172.532852 102.117569,172.963730 101.884460,173.710632 
	C101.504013,174.508728 101.488686,175.054428 101.208893,175.783508 
	C101.036575,175.990112 100.806847,176.184265 100.659195,176.155670 
	C99.988899,176.455353 99.423019,176.569794 98.429367,176.246292 
	C96.908104,172.598221 100.065781,173.063339 101.988892,172.088745 
z"/>
<path fill="#CAC8CB" opacity="1.000000" stroke="none" 
	d="
M193.914490,86.753311 
	C193.162979,87.054489 192.515976,87.050262 191.544861,87.061600 
	C190.801773,86.765358 190.630463,86.344551 190.896545,85.540176 
	C191.804520,85.220238 192.487671,85.190277 193.514801,85.166351 
	C193.912201,85.597557 193.965607,86.022736 193.914490,86.753311 
z"/>
<path fill="#9395BC" opacity="1.000000" stroke="none" 
	d="
M98.080154,176.371735 
	C98.591599,176.042343 99.138367,176.062424 100.098343,176.104797 
	C100.298981,176.663391 100.086403,177.199677 99.690056,177.954376 
	C99.042686,177.688919 98.579079,177.205048 98.080154,176.371735 
z"/>
<path fill="#9395BC" opacity="1.000000" stroke="none" 
	d="
M101.342056,175.974579 
	C101.143234,175.456711 101.249893,174.923325 101.564224,174.208313 
	C101.885002,174.403458 101.998100,174.780243 102.164780,175.448029 
	C102.028076,175.812393 101.837799,175.885727 101.342056,175.974579 
z"/>
<path fill="#1A1919" opacity="1.000000" stroke="none" 
	d="
M106.096771,176.177917 
	C106.164566,175.943710 106.325714,175.873459 106.736526,175.888000 
	C106.814461,176.297729 106.686653,176.717422 106.096771,176.177917 
z"/>
<path fill="#252138" opacity="1.000000" stroke="none" 
	d="
M178.253906,71.170921 
	C178.984772,68.411690 178.313416,64.846718 182.543732,64.020264 
	C183.068222,64.153389 183.232834,64.333229 183.483978,64.869492 
	C183.171677,67.730888 182.198273,69.897530 179.620804,71.418213 
	C179.023209,71.471634 178.781479,71.436005 178.253906,71.170921 
z"/>
<path fill="#51468A" opacity="1.000000" stroke="none" 
	d="
M183.500580,65.203018 
	C183.096176,64.852455 183.060776,64.676262 182.964478,64.236801 
	C182.903610,63.973549 183.010178,63.527103 183.025146,63.299023 
	C183.214905,63.061165 183.389709,63.051384 183.827057,63.037323 
	C184.773834,62.994793 185.268799,63.265690 185.287445,63.987072 
	C185.311203,64.906044 184.706268,65.283890 183.500580,65.203018 
z"/>
<path fill="#FEFEFF" opacity="1.000000" stroke="none" 
	d="
M177.731354,71.024506 
	C177.968063,70.941467 178.358429,71.142754 178.577972,71.147202 
	C179.280960,71.533203 179.433197,72.018600 178.882736,72.794067 
	C177.852005,72.806915 177.230347,72.589195 177.065857,71.539169 
	C177.183380,71.229919 177.339020,71.168724 177.731354,71.024506 
z"/>
<path fill="#493AA0" opacity="1.000000" stroke="none" 
	d="
M200.023026,79.614944 
	C199.579391,80.022263 199.141068,80.028740 198.374207,80.029648 
	C192.973175,82.637520 190.980179,81.676308 190.652374,76.169403 
	C190.317551,70.544113 190.625000,64.901367 189.923691,59.269749 
	C189.381943,54.919540 192.861267,52.485909 195.678680,49.350922 
	C196.437744,49.029312 196.896896,49.031494 197.699982,49.051220 
	C198.203735,49.222771 198.363541,49.376778 198.766388,49.758293 
	C200.388916,49.983673 201.768433,49.981533 203.560562,49.971172 
	C201.198120,57.219601 202.120590,64.825729 202.132980,72.293922 
	C202.137512,75.025551 200.566269,76.873444 200.023026,79.614944 
z"/>
<path fill="#3B2E7E" opacity="1.000000" stroke="none" 
	d="
M216.818726,71.963493 
	C217.081924,72.114120 217.084564,72.305099 217.084259,72.783508 
	C216.664124,72.839600 216.246933,72.608253 215.829758,72.376915 
	C216.072556,72.252556 216.315369,72.128197 216.818726,71.963493 
z"/>
<path fill="#8A97E3" opacity="1.000000" stroke="none" 
	d="
M64.000153,178.410980 
	C63.586586,175.899933 63.073929,173.884552 60.411690,172.993500 
	C60.477306,170.520340 59.036190,168.705978 58.037292,166.371490 
	C55.902084,162.025620 58.670227,159.268585 60.945911,156.997498 
	C62.507088,155.439468 62.346569,154.025391 62.753159,152.182129 
	C66.416214,151.772598 65.755287,156.272659 68.897171,156.720108 
	C69.250214,156.653961 69.260529,156.721558 69.257355,156.755585 
	C70.509911,158.904373 70.675919,161.381073 71.617355,164.032166 
	C73.180115,174.067291 72.316544,183.770004 72.280243,193.744446 
	C71.555405,194.049667 71.119766,194.050018 70.358444,194.069321 
	C69.760773,193.888321 69.488792,193.688370 69.096733,193.264099 
	C68.819099,192.899277 68.661552,192.758743 68.256500,192.815765 
	C64.961380,192.330627 64.989311,189.860077 65.049210,187.577347 
	C65.127495,184.593323 64.797760,181.695023 64.000153,178.410980 
z"/>
<path fill="#98A8F0" opacity="1.000000" stroke="none" 
	d="
M36.649033,141.052704 
	C36.023064,140.816498 35.747864,140.556839 35.227272,140.157455 
	C33.639580,137.924759 32.297283,135.831787 30.839668,133.412201 
	C30.937309,133.064789 31.150265,133.043991 31.683525,133.002777 
	C33.339577,132.161987 34.957699,132.454620 36.669464,131.773621 
	C40.562225,129.599396 40.591995,127.505920 36.796516,125.109238 
	C36.172226,122.405319 35.972496,119.978821 36.755032,117.268181 
	C38.138412,117.578110 39.275604,118.166290 40.704376,118.887390 
	C40.536720,121.235970 42.464085,122.180298 43.725830,123.825066 
	C44.649929,125.451546 45.297760,126.879333 45.979813,128.643311 
	C45.948437,132.355408 47.255825,136.006699 43.490704,138.550385 
	C42.677094,139.100052 43.829357,140.322571 44.702332,140.813171 
	C45.912498,141.493271 46.972660,142.295792 46.957226,143.791931 
	C46.937645,145.689178 49.304672,148.150879 47.303959,149.226486 
	C45.076653,150.423904 44.668262,147.035568 43.251709,145.926651 
	C41.168381,144.295776 40.573196,140.731354 36.649033,141.052704 
z"/>
<path fill="#A7BBFB" opacity="1.000000" stroke="none" 
	d="
M12.808502,85.084244 
	C14.729848,86.955582 17.191595,87.028214 19.641699,87.960999 
	C21.057852,89.593552 21.839128,90.526062 19.684586,92.562477 
	C17.883183,94.265099 18.839878,97.819725 19.707916,100.590416 
	C20.656031,103.616692 22.562813,106.760307 18.705107,109.467461 
	C17.323704,110.436859 18.215633,111.995346 19.558455,112.628120 
	C21.426661,113.508484 23.503397,114.245361 22.104872,116.823036 
	C20.856739,119.123505 18.758406,119.095261 16.569731,118.096840 
	C16.290682,117.969536 15.916662,118.050423 15.181872,118.060318 
	C13.042806,118.067650 11.251331,118.369606 9.411388,116.968643 
	C5.886078,108.949738 6.805949,100.882736 7.549455,92.820557 
	C7.761181,90.524712 7.851762,88.217697 8.002168,85.467041 
	C9.021423,84.213295 10.200372,84.599236 11.696250,84.773331 
	C12.071449,84.984711 12.565271,85.034912 12.808502,85.084244 
z"/>
<path fill="#9BAFF5" opacity="1.000000" stroke="none" 
	d="
M37.001938,116.571167 
	C36.900433,119.413673 38.728161,121.816948 37.037689,124.627655 
	C37.711735,127.429176 37.644329,129.908310 37.227535,132.697250 
	C35.526096,132.882217 34.147778,134.498947 32.305183,133.115814 
	C30.126276,130.028381 30.661016,125.903572 27.450367,123.590393 
	C27.335184,123.507401 27.220142,123.266762 27.258646,123.150436 
	C29.526976,116.297119 25.041729,109.417068 27.233521,102.650017 
	C28.506969,98.718307 27.646320,94.807327 28.002874,90.441818 
	C32.507835,90.099304 34.044811,92.366852 33.285606,96.751060 
	C32.510029,101.229813 32.748329,105.625008 35.682686,109.485054 
	C37.185585,111.462067 37.065128,113.829224 37.001938,116.571167 
z"/>
<path fill="#A7BBFB" opacity="1.000000" stroke="none" 
	d="
M20.002777,87.261971 
	C20.004782,87.015800 20.491980,87.013733 20.735264,87.017105 
	C20.886084,87.341675 20.703442,87.598816 20.213749,87.896194 
	C19.996878,88.000481 20.000771,87.508141 20.002777,87.261971 
z"/>
<path fill="#665DB7" opacity="1.000000" stroke="none" 
	d="
M141.249588,116.245926 
	C140.510590,114.080254 142.214920,113.104782 142.952133,111.338745 
	C145.164536,109.082420 145.875519,105.636452 149.648163,105.034012 
	C151.328064,102.183250 152.021317,98.430687 156.825562,100.742096 
	C157.344635,102.630013 157.288666,104.208496 156.121292,105.901459 
	C155.269501,106.358765 154.585922,106.268158 153.837769,106.859039 
	C153.416855,107.393135 153.205536,107.718231 152.940536,108.336578 
	C154.237167,110.789917 152.252457,113.306030 153.785980,115.738342 
	C152.799377,117.544785 154.753510,118.237885 154.965210,119.704330 
	C154.436172,120.613625 153.747803,121.026985 152.677368,121.358307 
	C151.978088,121.629082 151.275940,121.441887 151.240906,122.536697 
	C150.751007,123.355972 150.186813,123.556335 149.216339,123.530396 
	C147.662613,122.974686 146.520523,122.296280 145.065857,121.507530 
	C143.655914,119.724373 142.848923,117.907951 141.249588,116.245926 
z"/>
<path fill="#584EAB" opacity="1.000000" stroke="none" 
	d="
M170.351044,103.263901 
	C169.159317,101.167542 167.663559,100.778145 165.858826,101.175850 
	C164.797714,101.409691 163.554794,102.360519 163.133133,100.454460 
	C162.860031,99.220070 163.206680,97.974617 164.363144,97.452118 
	C167.311203,96.120163 168.135498,93.466286 168.960159,90.368683 
	C169.553604,89.046989 170.455185,88.634895 171.864731,88.425842 
	C173.318619,88.699532 174.007202,89.368217 174.308685,90.798126 
	C173.123108,93.927704 173.031998,96.754684 173.820328,100.001572 
	C173.977249,101.140511 173.872070,101.881287 173.376144,102.932388 
	C173.212997,103.278793 173.118332,103.156448 173.189743,103.186157 
	C172.450119,103.642181 171.611084,103.832901 170.351044,103.263901 
z"/>
<path fill="#6C68AE" opacity="1.000000" stroke="none" 
	d="
M148.653641,123.047668 
	C149.570709,122.849945 150.120773,122.674469 150.837799,122.255829 
	C151.064545,121.666985 151.242264,121.405800 151.777069,121.122772 
	C152.525436,120.094894 153.407730,120.016518 154.658508,120.002762 
	C155.001038,120.168999 155.006012,120.343056 155.009918,120.778290 
	C155.332733,121.434700 155.433716,121.874931 154.913940,122.344772 
	C154.550949,122.322334 154.431870,122.454430 154.375366,122.523087 
	C152.081696,126.455101 149.312027,129.810226 144.979477,132.019440 
	C144.479172,132.106171 144.330307,132.182648 144.049744,132.472824 
	C143.824692,133.220825 143.496460,133.474869 142.623810,133.363281 
	C142.190399,132.115891 142.097610,130.990952 142.004089,129.441406 
	C141.780807,124.586441 145.385406,124.199768 148.653641,123.047668 
z"/>
<path fill="#5E56AA" opacity="1.000000" stroke="none" 
	d="
M154.706970,106.005646 
	C156.704498,104.878624 155.463135,102.809685 156.727722,101.228432 
	C158.602020,101.348396 160.894440,100.019173 161.688950,102.228928 
	C162.412628,104.241730 160.093521,104.648621 159.002625,105.691765 
	C158.432755,106.236710 158.031052,106.957504 157.276703,107.799484 
	C155.660904,110.334534 153.917877,110.295174 151.966049,108.429146 
	C152.095428,107.673218 152.282578,107.411217 152.775208,107.101913 
	C153.403381,106.572563 153.814819,106.155785 154.706970,106.005646 
z"/>
<path fill="#6058B1" opacity="1.000000" stroke="none" 
	d="
M151.682693,108.043709 
	C153.350784,109.600983 154.848785,109.012779 156.678101,108.139404 
	C158.568542,111.335457 155.901505,113.187073 154.197601,115.718185 
	C153.045792,115.945091 151.275131,115.908882 151.458618,115.236191 
	C152.128433,112.780411 152.121384,110.465286 151.682693,108.043709 
z"/>
<path fill="#EFEFF8" opacity="1.000000" stroke="none" 
	d="
M171.127350,105.550247 
	C175.108566,107.999847 171.133087,109.678360 170.702103,111.328674 
	C170.237274,113.108566 167.570267,112.418640 165.457733,112.057068 
	C166.029938,110.563850 166.912048,109.103073 167.723633,107.265030 
	C166.913986,106.989136 166.707458,106.703934 167.331848,105.756287 
	C168.663849,105.004936 169.717804,104.952019 171.127350,105.550247 
z"/>
<path fill="#5547B2" opacity="1.000000" stroke="none" 
	d="
M172.253998,88.670937 
	C171.215973,89.317444 170.427490,89.634781 169.319504,89.978485 
	C168.086670,89.467255 168.002594,88.574440 167.982407,87.308693 
	C167.338242,86.272087 167.261627,85.477013 167.711548,84.226318 
	C167.871368,83.836456 167.848862,83.841789 167.837387,83.830345 
	C168.618912,83.880203 169.411911,83.941505 170.602753,84.002335 
	C172.482544,85.108788 173.111649,86.511047 172.253998,88.670937 
z"/>
<path fill="#595099" opacity="1.000000" stroke="none" 
	d="
M171.626373,105.508728 
	C170.497208,106.140350 169.532761,106.500336 168.182419,106.788948 
	C167.788727,105.901993 166.967896,105.487389 166.920349,104.372665 
	C167.873718,103.845528 168.728073,103.685997 169.786224,103.267654 
	C170.809341,103.030518 171.628632,103.052200 172.854553,103.144882 
	C172.771149,103.889618 172.281128,104.563354 171.626373,105.508728 
z"/>
<path fill="#595099" opacity="1.000000" stroke="none" 
	d="
M167.585114,83.950241 
	C167.910538,84.619675 167.949722,85.402893 167.981110,86.576561 
	C166.903702,87.525948 165.850143,88.140320 164.199585,87.914246 
	C164.237900,87.167213 164.641449,86.461632 165.088760,85.443459 
	C165.854645,84.775253 166.576767,84.419640 167.585114,83.950241 
z"/>
<path fill="#584EAB" opacity="1.000000" stroke="none" 
	d="
M166.661438,104.008484 
	C167.296631,104.663467 167.573898,105.321884 167.823837,106.348938 
	C167.796524,106.717575 167.644455,106.790108 167.648773,106.838928 
	C166.299515,107.067101 164.905121,106.912651 164.483521,105.479431 
	C164.089188,104.138832 165.360916,104.107635 166.661438,104.008484 
z"/>
<path fill="#EFEFF8" opacity="1.000000" stroke="none" 
	d="
M154.885391,122.503815 
	C154.605759,122.018036 154.723694,121.740540 154.956787,121.264656 
	C155.800720,120.394135 156.592621,119.748787 157.683380,119.034576 
	C156.941422,120.116432 157.707047,122.608765 154.885391,122.503815 
z"/>
<path fill="#595099" opacity="1.000000" stroke="none" 
	d="
M161.911102,89.896561 
	C161.890152,89.071053 162.091248,88.109596 163.536484,87.850273 
	C163.929733,88.928757 163.601807,89.779861 161.911102,89.896561 
z"/>
<path fill="#595099" opacity="1.000000" stroke="none" 
	d="
M158.872269,92.901398 
	C159.075775,92.232613 159.691559,91.548569 160.607224,90.688232 
	C160.929214,91.688065 160.729584,92.712646 158.872269,92.901398 
z"/>
<path fill="#EFEFF8" opacity="1.000000" stroke="none" 
	d="
M159.726685,117.023300 
	C159.800186,117.235229 159.615997,117.512070 159.195251,117.883011 
	C159.128799,117.680817 159.298904,117.384514 159.726685,117.023300 
z"/>
<path fill="#EFEFF8" opacity="1.000000" stroke="none" 
	d="
M158.734283,118.045235 
	C158.797562,118.237587 158.619644,118.517448 158.204193,118.889069 
	C158.142136,118.698135 158.317612,118.415436 158.734283,118.045235 
z"/>
<path fill="#7778CD" opacity="1.000000" stroke="none" 
	d="
M102.278229,168.158600 
	C102.211861,165.964523 101.186981,164.322937 100.142090,162.318268 
	C100.498962,160.626648 101.883621,160.277466 102.861984,159.453537 
	C105.375000,157.337158 108.058754,155.185501 103.272942,152.504288 
	C101.693062,151.619186 101.848167,150.090317 102.876816,148.329651 
	C108.106575,145.546082 110.928368,140.479202 115.691422,137.154541 
	C115.976562,138.149872 116.388855,139.570007 115.863312,140.386398 
	C113.511208,144.040253 113.023476,146.934311 117.789322,149.057083 
	C119.169739,149.671951 117.692055,150.636703 117.191978,151.316620 
	C115.951935,153.002594 115.034111,154.553177 118.732864,155.226959 
	C119.187248,156.124146 118.875572,156.634079 118.224411,157.282181 
	C117.844559,157.593201 117.687477,157.708099 117.064270,158.150375 
	C116.450333,158.590332 116.302521,158.702927 115.939087,158.987488 
	C115.582626,159.274994 115.441795,159.390533 115.098480,159.685699 
	C114.509720,160.245636 114.163567,160.658310 113.736320,161.360596 
	C113.366371,161.902100 113.103592,162.168655 112.565239,162.551514 
	C111.812218,162.944962 111.283424,163.151581 110.563896,163.609894 
	C109.565460,164.385727 108.880104,165.081696 107.954338,165.968567 
	C107.563370,166.299408 107.398575,166.423859 106.967255,166.710770 
	C105.361870,167.477753 104.092766,168.282822 102.278229,168.158600 
z"/>
<path fill="#6C68AE" opacity="1.000000" stroke="none" 
	d="
M133.743240,135.748016 
	C135.502060,138.897766 137.142212,134.810883 139.051270,136.131317 
	C139.383850,138.016998 138.406052,139.348953 136.772308,140.310852 
	C136.461349,140.127060 136.237457,140.277420 136.149445,140.379578 
	C136.799744,141.200745 135.991287,141.621552 135.497284,142.390747 
	C134.281860,143.256027 133.325089,143.928467 131.502930,143.319000 
	C131.172379,140.729752 133.637619,139.265274 133.004242,136.384399 
	C133.007233,136.003662 133.002899,136.001587 133.008270,136.003128 
	C133.175751,135.833679 133.337830,135.662704 133.743240,135.748016 
z"/>
<path fill="#7776B7" opacity="1.000000" stroke="none" 
	d="
M118.994522,155.011475 
	C119.141846,152.243347 119.609589,149.767014 123.815643,150.291794 
	C124.003616,153.280579 122.695953,155.136688 119.475037,155.363556 
	C119.137199,155.205109 119.046936,155.072296 118.994522,155.011475 
z"/>
<path fill="#6C68AE" opacity="1.000000" stroke="none" 
	d="
M126.273376,147.252563 
	C127.049431,145.277222 128.280792,143.741241 130.611298,142.988800 
	C131.066223,143.065735 131.192932,143.191818 131.509796,143.506958 
	C131.533020,145.625153 130.351242,146.772629 128.356018,147.658325 
	C127.496803,147.765366 127.015511,147.678223 126.273376,147.252563 
z"/>
<path fill="#7776B7" opacity="1.000000" stroke="none" 
	d="
M125.708908,147.146271 
	C126.483177,147.014984 126.969574,147.023727 127.820114,147.055130 
	C128.334412,149.175980 126.980064,150.031479 124.917259,150.580582 
	C124.558197,150.562775 124.271820,150.274002 124.128471,150.129425 
	C124.003654,148.840500 124.445221,147.921265 125.708908,147.146271 
z"/>
<path fill="#6C6AC7" opacity="1.000000" stroke="none" 
	d="
M128.014984,124.385361 
	C128.341980,123.910095 128.597427,123.719734 128.898621,123.231804 
	C129.740585,122.995941 130.477295,122.977760 131.580933,122.947052 
	C137.039719,125.822685 137.027695,125.807159 132.055893,129.660080 
	C131.589462,130.021561 131.399307,130.739532 131.043793,131.646301 
	C129.124756,130.933868 125.009232,135.852356 125.009384,129.366394 
	C127.495178,128.614578 127.720032,126.661819 128.014984,124.385361 
z"/>
<path fill="#675DC2" opacity="1.000000" stroke="none" 
	d="
M148.860916,122.716522 
	C147.727448,125.892372 142.952286,124.696724 142.268814,128.800781 
	C140.566025,128.376572 139.936523,127.249779 140.004517,125.352432 
	C139.785324,121.924400 142.502121,121.835625 144.644623,120.900017 
	C146.430084,120.955788 147.815216,121.024818 148.860916,122.716522 
z"/>
<path fill="#6761AE" opacity="1.000000" stroke="none" 
	d="
M144.996674,120.636719 
	C143.983215,122.890221 141.518555,122.783745 140.154968,124.704552 
	C138.529114,124.817833 137.762985,124.223846 138.817719,122.749161 
	C140.102966,120.952202 140.634048,118.898132 141.006821,116.394890 
	C143.514465,116.340370 144.842316,117.755890 144.996674,120.636719 
z"/>
<path fill="#EFEFF8" opacity="1.000000" stroke="none" 
	d="
M136.796265,140.370972 
	C136.766434,138.572296 138.161423,137.847794 139.230896,136.454376 
	C139.671295,136.122269 139.870972,135.987579 140.076263,135.595840 
	C140.282562,134.505295 140.742126,133.812241 141.884369,133.272980 
	C142.189041,133.158737 142.224014,133.212418 142.253601,133.226624 
	C142.640930,133.101517 142.998672,132.962204 143.637222,132.754700 
	C142.319046,135.897110 142.381439,140.529877 136.796265,140.370972 
z"/>
<path fill="#6E6EB9" opacity="1.000000" stroke="none" 
	d="
M134.078217,135.758850 
	C133.986572,136.004272 133.499954,136.004150 133.256805,136.004410 
	C133.117203,135.298279 132.997818,134.440582 134.071762,134.415359 
	C134.095856,134.414795 134.136795,135.131378 134.078217,135.758850 
z"/>
<path fill="#6C68AE" opacity="1.000000" stroke="none" 
	d="
M141.817047,133.154221 
	C141.681671,133.800018 141.174301,134.441284 140.402222,135.251953 
	C140.084335,134.382660 140.142136,133.407867 141.817047,133.154221 
z"/>
<path fill="#665DB7" opacity="1.000000" stroke="none" 
	d="
M138.550964,117.464684 
	C138.585983,117.522713 138.515930,117.406654 138.550964,117.464684 
z"/>
<path fill="#A6B9EA" opacity="1.000000" stroke="none" 
	d="
M11.842787,84.692680 
	C10.986744,84.992882 9.902039,85.001053 8.411886,85.013756 
	C7.997332,84.842407 7.988225,84.666534 7.970276,84.226265 
	C9.178997,84.108131 10.396561,84.254395 11.842787,84.692680 
z"/>
<path fill="#808AD8" opacity="1.000000" stroke="none" 
	d="
M93.741257,183.739594 
	C94.138969,183.998764 94.315041,184.002640 94.755325,184.016785 
	C95.036057,187.591354 91.883011,190.412933 92.752815,194.250061 
	C93.099510,195.779465 91.590027,196.028824 90.394539,195.980774 
	C87.123215,195.849319 83.822136,196.463348 80.284409,195.313019 
	C78.273376,193.028717 78.597343,190.653824 78.896240,188.368790 
	C79.451736,184.122116 78.992668,179.850296 77.069641,176.229218 
	C74.973122,172.281448 75.830902,169.333344 78.528969,165.963745 
	C79.631218,165.319763 80.454086,165.497025 81.629852,165.778687 
	C83.337570,169.525757 86.949013,167.615967 89.596848,168.992813 
	C89.276321,172.380524 92.370369,174.930466 92.007370,178.635651 
	C93.306358,180.251419 92.974037,182.016724 93.741257,183.739594 
z"/>
<path fill="#8690DE" opacity="1.000000" stroke="none" 
	d="
M78.728340,165.706497 
	C75.823662,170.285782 77.861542,174.504318 79.385010,178.536362 
	C81.350250,183.737625 79.800728,188.938538 79.992973,194.575562 
	C77.452866,195.228760 74.903076,195.662308 72.218506,194.307129 
	C71.303429,186.412018 70.146271,178.804688 71.615654,171.099731 
	C72.013680,169.012589 68.980156,167.124222 70.851807,164.329300 
	C73.853859,162.495102 76.093376,164.320267 78.728340,165.706497 
z"/>
<path fill="#5043A0" opacity="1.000000" stroke="none" 
	d="
M195.588776,49.023270 
	C195.948395,49.852818 196.220993,51.210087 195.843079,51.425354 
	C188.927032,55.364838 192.071014,61.680035 192.005692,67.217087 
	C191.970505,70.198212 192.095490,73.183929 191.976395,76.160706 
	C191.815536,80.181503 193.193970,81.905312 197.662308,80.057312 
	C197.003342,83.259483 193.114243,82.362022 191.255951,84.929207 
	C191.156494,85.655602 191.191635,86.060997 191.223755,86.771774 
	C188.511047,88.280228 186.852295,90.750435 184.317703,92.606613 
	C181.357895,91.288818 183.227524,87.641052 180.483459,85.952049 
	C179.532852,85.098709 179.013779,84.344795 178.460419,83.201668 
	C177.210495,80.893738 180.708923,78.078392 176.944580,76.278908 
	C176.659103,75.813164 176.621567,75.586617 176.730865,75.048477 
	C177.447510,74.332191 178.017319,73.927498 178.549194,73.251526 
	C178.605896,72.577812 178.700485,72.175377 178.796295,71.462296 
	C181.161575,70.052879 181.419403,67.446548 182.945892,65.322006 
	C184.028244,64.839821 185.057770,64.761894 184.302246,63.202248 
	C184.116409,62.583782 184.143188,62.134525 184.259979,61.359322 
	C185.785156,59.048000 185.587448,56.789246 185.230789,54.272179 
	C184.996597,53.827587 184.969009,53.649284 184.918442,53.201828 
	C184.913834,52.761688 184.932175,52.590698 185.062241,52.187248 
	C188.515625,50.976334 191.857269,49.997875 195.588776,49.023270 
z"/>
<path fill="#5043A0" opacity="1.000000" stroke="none" 
	d="
M198.905075,49.778687 
	C198.698425,49.903797 198.444321,49.735809 198.145508,49.275307 
	C198.358551,49.142525 198.610825,49.310127 198.905075,49.778687 
z"/>
<path fill="#959ACE" opacity="1.000000" stroke="none" 
	d="
M79.359711,166.008911 
	C76.384819,166.057068 74.158379,164.705627 71.365410,164.038040 
	C68.959801,162.287415 68.861115,159.996689 69.166847,157.200317 
	C70.813042,156.612000 71.380043,158.017258 72.651932,158.904282 
	C74.748741,162.422226 77.996895,163.739655 81.670311,165.038300 
	C82.020088,165.127106 81.998878,165.558228 81.993484,165.773865 
	C81.237244,165.993484 80.486382,165.997498 79.359711,166.008911 
z"/>
<path fill="#8690DE" opacity="1.000000" stroke="none" 
	d="
M68.250961,193.018250 
	C68.186836,192.669083 68.348640,192.284698 68.900650,192.863892 
	C68.976654,193.039795 68.492920,193.023193 68.250961,193.018250 
z"/>
<path fill="#574E95" opacity="1.000000" stroke="none" 
	d="
M176.625427,74.897415 
	C176.907837,74.948914 176.937958,75.160950 176.990616,75.693459 
	C177.197144,77.025452 176.592178,77.332191 175.412628,77.250008 
	C175.074799,77.072556 174.989441,76.986923 174.947266,76.943405 
	C175.394440,76.285919 175.883789,75.671944 176.625427,74.897415 
z"/>
<path fill="#5449A4" opacity="1.000000" stroke="none" 
	d="
M178.759094,82.762192 
	C179.504822,83.563637 180.010254,84.129105 180.760284,84.848518 
	C181.220123,89.765503 179.434982,91.565514 174.272110,91.257561 
	C173.511871,90.412270 173.023758,89.826309 172.270050,89.120239 
	C171.694672,87.577545 171.384872,86.154976 171.037842,84.367134 
	C172.298126,82.560333 173.595642,81.118813 174.949493,79.337173 
	C177.523605,78.832809 177.013107,81.682983 178.759094,82.762192 
z"/>
<path fill="#5547B2" opacity="1.000000" stroke="none" 
	d="
M179.007492,82.617676 
	C176.105637,83.523605 176.142761,81.185478 175.276672,79.231110 
	C175.015305,78.568970 175.024796,78.140892 175.054535,77.392685 
	C175.613190,76.881294 176.151566,76.690033 176.851547,76.256348 
	C184.940033,75.752487 178.204437,80.208992 179.007492,82.617676 
z"/>
<path fill="#51468A" opacity="1.000000" stroke="none" 
	d="
M184.986481,54.405304 
	C186.469086,56.274036 186.568680,58.539165 184.679474,60.916969 
	C184.549576,58.957161 184.749161,56.880943 184.986481,54.405304 
z"/>
<path fill="#F4F5FB" opacity="1.000000" stroke="none" 
	d="
M124.384521,150.838928 
	C125.663513,149.588348 126.768829,148.613922 128.029205,147.358643 
	C129.225906,146.107391 130.267548,145.137009 131.504562,143.931335 
	C132.456299,143.150299 133.212692,142.604553 134.224121,141.938126 
	C135.047943,141.670486 135.625946,141.587997 136.596161,141.784515 
	C135.898865,144.583298 130.826782,145.817322 134.455185,150.101959 
	C135.128769,150.897385 133.388077,152.199661 132.167297,151.746994 
	C127.784286,150.121796 125.325226,152.210205 123.536156,155.858139 
	C121.413658,160.185928 116.161758,162.518112 115.809448,167.974747 
	C112.159012,167.928482 109.518913,171.194275 105.445778,171.042313 
	C105.062363,171.065414 104.785393,170.792725 104.646301,170.656982 
	C104.194077,168.655502 105.349953,167.608551 106.980148,166.534485 
	C107.295486,166.418747 107.291992,166.356766 107.296600,166.326065 
	C107.903259,165.026947 109.543076,164.905670 110.383347,163.414902 
	C110.859467,162.793518 111.202866,162.523712 111.916183,162.198776 
	C112.519066,162.005997 112.751266,161.852249 112.971344,161.381683 
	C113.413094,160.457321 113.804817,159.748352 114.831650,159.199768 
	C115.092155,159.043503 115.021721,159.018829 115.021271,159.056137 
	C115.221786,158.818649 115.444344,158.562820 115.897400,158.178116 
	C116.102745,158.027161 116.023109,158.014282 116.020645,158.054535 
	C116.234962,157.793320 116.489929,157.528625 117.030609,157.176147 
	C117.818565,156.596909 118.358948,156.142151 119.018265,155.446259 
	C121.521294,154.701279 122.708450,152.712646 124.384521,150.838928 
z"/>
<path fill="#5547B2" opacity="1.000000" stroke="none" 
	d="
M173.616547,91.082062 
	C178.001099,91.340561 179.674438,88.784332 180.900330,85.271599 
	C184.954956,86.112915 182.611649,89.823822 183.956589,92.350601 
	C183.861313,92.757309 183.718307,92.843880 183.330414,92.984253 
	C180.681961,94.288086 178.446991,95.745483 176.718292,98.356270 
	C175.793213,99.641129 175.046753,100.610443 173.304596,100.221481 
	C171.547302,97.020721 171.099060,94.060165 173.616547,91.082062 
z"/>
<path fill="#EFEFF8" opacity="1.000000" stroke="none" 
	d="
M144.779633,132.423218 
	C147.674118,128.959702 150.720230,125.889694 154.042603,122.705719 
	C155.641861,125.223816 153.374954,126.395508 152.098923,127.928123 
	C150.546631,129.792572 148.897980,131.576782 147.146957,133.696350 
	C146.312347,133.603561 145.621796,133.210129 144.779633,132.423218 
z"/>
<path fill="#51468A" opacity="1.000000" stroke="none" 
	d="
M175.786087,98.401550 
	C176.773254,94.688042 179.480530,93.756493 182.712036,93.028313 
	C181.710693,94.678421 180.335876,96.318794 178.895905,98.275185 
	C178.546509,99.566292 177.776413,99.738991 176.519562,99.612221 
	C175.967346,99.244751 175.806274,99.018906 175.786087,98.401550 
z"/>
<path fill="#EFEFF8" opacity="1.000000" stroke="none" 
	d="
M176.126770,99.822884 
	C176.999908,99.689751 177.585571,99.280205 178.500992,98.730927 
	C179.052353,100.432915 178.977173,102.059280 176.016083,101.846275 
	C175.241440,101.000519 175.417633,100.260361 176.126770,99.822884 
z"/>
<path fill="#595099" opacity="1.000000" stroke="none" 
	d="
M176.287231,99.578201 
	C176.200790,100.516991 175.987320,100.934677 175.686127,101.575043 
	C175.598404,101.797729 175.213959,101.963364 175.097839,102.137497 
	C174.806732,102.380699 174.631775,102.449776 174.362823,102.784882 
	C174.094360,103.096741 173.919891,103.142555 173.479202,103.233582 
	C173.144257,102.461136 173.075500,101.643486 173.006439,100.416527 
	C174.218475,100.060829 174.841782,99.242004 175.678345,98.190414 
	C176.004700,98.359062 176.082443,98.708076 176.287231,99.578201 
z"/>
<path fill="#EFEFF8" opacity="1.000000" stroke="none" 
	d="
M180.537750,104.387039 
	C180.308640,103.580910 180.592163,103.291260 181.216537,103.413887 
	C181.346527,103.439415 181.521927,103.622978 181.541779,103.754082 
	C181.637375,104.385529 181.330521,104.650391 180.537750,104.387039 
z"/>
<path fill="#EFEFF8" opacity="1.000000" stroke="none" 
	d="
M136.818970,141.577881 
	C136.424057,141.972168 135.868927,141.945267 134.896484,141.867905 
	C134.839691,141.406998 135.200226,140.996536 135.811096,140.533905 
	C136.260529,140.706711 136.459625,140.931686 136.818970,141.577881 
z"/>
<path fill="#EFEFF8" opacity="1.000000" stroke="none" 
	d="
M146.998611,134.000946 
	C147.246017,134.349350 147.494797,134.696793 147.743591,135.044250 
	C147.620270,135.130432 147.496948,135.216614 147.373627,135.302780 
	C147.259354,135.027161 147.145096,134.751541 147.016876,134.236450 
	C147.002899,133.996994 147.000000,134.000000 146.998611,134.000946 
z"/>
<path fill="#EFEFF8" opacity="1.000000" stroke="none" 
	d="
M174.425766,102.968033 
	C174.251724,102.765228 174.363770,102.545425 174.793335,102.351570 
	C174.913193,102.547676 174.780182,102.738846 174.425766,102.968033 
z"/>
<path fill="#7C7DB8" opacity="1.000000" stroke="none" 
	d="
M106.943848,166.301620 
	C107.201653,168.100647 105.449814,168.649490 104.681313,170.255280 
	C104.267136,170.733627 104.003975,170.911972 103.488556,171.125656 
	C102.245232,170.679718 102.012703,169.767609 102.006744,168.369873 
	C103.531754,167.396103 105.061981,166.790298 106.943848,166.301620 
z"/>
<path fill="#9395BC" opacity="1.000000" stroke="none" 
	d="
M94.094437,183.691803 
	C90.000160,184.128098 92.982986,181.045364 92.014061,179.414581 
	C94.483452,179.605789 95.240417,181.046463 94.094437,183.691803 
z"/>
<path fill="#98ACE5" opacity="1.000000" stroke="none" 
	d="
M37.372410,132.956604 
	C36.567974,130.576874 35.129604,128.196381 36.846870,125.344070 
	C38.474693,125.191170 40.505833,124.392357 40.892010,126.731201 
	C41.345451,129.477402 40.840073,131.899033 37.372410,132.956604 
z"/>
<path fill="#6058B1" opacity="1.000000" stroke="none" 
	d="
M154.955811,105.688980 
	C154.530792,106.320412 154.061157,106.638603 153.293015,106.974915 
	C153.170380,106.098351 152.611618,104.881592 153.954742,104.517090 
	C154.179352,104.456146 154.587723,105.072411 154.955811,105.688980 
z"/>
<path fill="#6058B1" opacity="1.000000" stroke="none" 
	d="
M151.759735,120.914322 
	C151.900330,121.328011 151.714935,121.590797 151.223083,121.902023 
	C150.749573,121.636208 150.205307,121.156715 150.295609,120.903419 
	C150.529099,120.248337 151.086060,120.660690 151.759735,120.914322 
z"/>
<path fill="#6058B1" opacity="1.000000" stroke="none" 
	d="
M150.000000,105.000000 
	C150.122009,105.142525 150.244019,105.285049 150.366028,105.427574 
	C150.279846,105.377922 150.193680,105.328278 150.053741,105.139160 
	C150.000000,104.999695 150.000000,105.000000 150.000000,105.000000 
z"/>
<path fill="#7C7DB8" opacity="1.000000" stroke="none" 
	d="
M111.074478,162.894470 
	C110.716583,164.748230 109.513077,165.716629 107.630676,166.296524 
	C107.231079,164.754852 108.452492,164.112640 109.684814,163.140747 
	C110.231544,162.865021 110.492439,162.727753 111.074478,162.894470 
z"/>
<path fill="#6E6EAC" opacity="1.000000" stroke="none" 
	d="
M114.745010,159.067993 
	C114.585144,159.660172 114.078133,160.276855 113.301926,161.034698 
	C113.046989,160.192596 113.225693,159.317062 114.745010,159.067993 
z"/>
<path fill="#6E6EAC" opacity="1.000000" stroke="none" 
	d="
M111.584412,163.050568 
	C111.159431,163.157150 110.923241,163.115860 110.328850,163.038422 
	C110.500023,162.679794 111.029396,162.357315 111.886063,162.041779 
	C112.092720,162.346817 111.945999,162.631470 111.584412,163.050568 
z"/>
<path fill="#6E6EAC" opacity="1.000000" stroke="none" 
	d="
M117.002052,157.135544 
	C117.038773,157.340485 116.799362,157.629303 116.289062,158.006470 
	C116.254097,157.803024 116.490005,157.511230 117.002052,157.135544 
z"/>
<path fill="#6E6EAC" opacity="1.000000" stroke="none" 
	d="
M115.852585,158.123596 
	C115.916389,158.327362 115.730026,158.627563 115.282242,159.010605 
	C115.214684,158.802307 115.408546,158.511169 115.852585,158.123596 
z"/>
</svg>